<svg width="155" height="61" viewBox="0 0 155 61" fill="none" xmlns="http://www.w3.org/2000/svg">
<circle cx="30.5" cy="30.5" r="30.5" fill="#5F6FFF"/>
<path d="M25.62 10.98C24.9729 10.98 24.3522 11.2371 23.8947 11.6947C23.4371 12.1522 23.18 12.7729 23.18 13.42V23.18H13.42C12.7729 23.18 12.1522 23.4371 11.6947 23.8947C11.2371 24.3522 10.98 24.9729 10.98 25.62V35.38C10.98 36.0271 11.2371 36.6478 11.6947 37.1053C12.1522 37.5629 12.7729 37.82 13.42 37.82H23.18V47.58C23.18 48.2271 23.4371 48.8477 23.8947 49.3053C24.3522 49.7629 24.9729 50.02 25.62 50.02H35.38C36.0271 50.02 36.6478 49.7629 37.1053 49.3053C37.5629 48.8477 37.82 48.2271 37.82 47.58V37.82H47.58C48.2271 37.82 48.8477 37.5629 49.3053 37.1053C49.7629 36.6478 50.02 36.0271 50.02 35.38V25.62C50.02 24.9729 49.7629 24.3522 49.3053 23.8947C48.8477 23.4371 48.2271 23.18 47.58 23.18H37.82V13.42C37.82 12.7729 37.5629 12.1522 37.1053 11.6947C36.6478 11.2371 36.0271 10.98 35.38 10.98H25.62Z" fill="white"/>
<path d="M21.35 32.4812H24.4547C24.6162 32.4812 24.7591 32.3769 24.8083 32.2229L27.6183 23.4383C27.7378 23.0644 28.2804 23.1076 28.339 23.4958L30.4172 37.2114C30.4747 37.5909 30.9998 37.6444 31.1327 37.2844L34.4795 28.2163C34.6019 27.8849 35.074 27.8953 35.1815 28.2317L36.4582 32.2229C36.5074 32.3769 36.6503 32.4812 36.8119 32.4812H39.9166" stroke="#5F6FFF" stroke-width="4" stroke-linecap="round"/>
<path d="M73.448 40V16.098H76.712L86.402 31.602H84.532L94.188 16.098H97.452V40H92.862V24.02L93.746 24.292L87.014 35.104H83.886L77.154 24.292L78.072 24.02V40H73.448ZM109.713 40.34C107.99 40.34 106.46 39.9773 105.123 39.252C103.785 38.504 102.72 37.484 101.927 36.192C101.156 34.9 100.771 33.4267 100.771 31.772C100.771 30.14 101.145 28.6893 101.893 27.42C102.663 26.128 103.706 25.108 105.021 24.36C106.335 23.5893 107.797 23.204 109.407 23.204C110.993 23.204 112.387 23.5667 113.589 24.292C114.813 24.9947 115.765 25.9693 116.445 27.216C117.147 28.44 117.499 29.834 117.499 31.398C117.499 31.6927 117.476 31.9987 117.431 32.316C117.408 32.6107 117.351 32.9507 117.261 33.336L103.457 33.37V30.038L115.187 30.004L113.385 31.398C113.339 30.4233 113.158 29.6073 112.841 28.95C112.546 28.2927 112.104 27.794 111.515 27.454C110.948 27.0913 110.245 26.91 109.407 26.91C108.523 26.91 107.752 27.114 107.095 27.522C106.437 27.9073 105.927 28.4627 105.565 29.188C105.225 29.8907 105.055 30.7293 105.055 31.704C105.055 32.7013 105.236 33.574 105.599 34.322C105.984 35.0473 106.528 35.614 107.231 36.022C107.933 36.4073 108.749 36.6 109.679 36.6C110.517 36.6 111.277 36.464 111.957 36.192C112.637 35.8973 113.226 35.4667 113.725 34.9L116.343 37.518C115.549 38.4473 114.575 39.15 113.419 39.626C112.285 40.102 111.05 40.34 109.713 40.34ZM128.005 40.34C126.328 40.34 124.821 39.966 123.483 39.218C122.146 38.47 121.092 37.45 120.321 36.158C119.551 34.866 119.165 33.4153 119.165 31.806C119.165 30.174 119.551 28.712 120.321 27.42C121.092 26.128 122.146 25.108 123.483 24.36C124.843 23.5893 126.351 23.204 128.005 23.204C129.297 23.204 130.487 23.442 131.575 23.918C132.663 24.394 133.604 25.074 134.397 25.958L131.541 28.848C131.111 28.372 130.589 28.0093 129.977 27.76C129.388 27.5107 128.731 27.386 128.005 27.386C127.189 27.386 126.453 27.5787 125.795 27.964C125.161 28.3267 124.651 28.8367 124.265 29.494C123.903 30.1287 123.721 30.888 123.721 31.772C123.721 32.6333 123.903 33.404 124.265 34.084C124.651 34.7413 125.161 35.2627 125.795 35.648C126.453 36.0107 127.189 36.192 128.005 36.192C128.753 36.192 129.422 36.0673 130.011 35.818C130.623 35.546 131.145 35.1607 131.575 34.662L134.465 37.552C133.627 38.4587 132.663 39.15 131.575 39.626C130.487 40.102 129.297 40.34 128.005 40.34ZM148.038 40V30.582C148.038 29.6073 147.732 28.814 147.12 28.202C146.508 27.59 145.714 27.284 144.74 27.284C144.105 27.284 143.538 27.42 143.04 27.692C142.541 27.964 142.144 28.3493 141.85 28.848C141.578 29.3467 141.442 29.9247 141.442 30.582L139.708 29.698C139.708 28.406 139.98 27.284 140.524 26.332C141.068 25.3573 141.816 24.598 142.768 24.054C143.742 23.51 144.853 23.238 146.1 23.238C147.346 23.238 148.446 23.51 149.398 24.054C150.372 24.598 151.132 25.346 151.676 26.298C152.22 27.25 152.492 28.3493 152.492 29.596V40H148.038ZM136.988 40V15.418H141.442V40H136.988Z" fill="#000B6D"/>
</svg>
