<svg width="61" height="61" viewBox="0 0 61 61" fill="none" xmlns="http://www.w3.org/2000/svg">
<circle cx="30.5" cy="30.5" r="30.5" fill="#5F6FFF"/>
<path d="M25.62 10.98C24.9729 10.98 24.3522 11.2371 23.8947 11.6947C23.4371 12.1522 23.18 12.7729 23.18 13.42V23.18H13.42C12.7729 23.18 12.1522 23.4371 11.6947 23.8947C11.2371 24.3522 10.98 24.9729 10.98 25.62V35.38C10.98 36.0271 11.2371 36.6478 11.6947 37.1053C12.1522 37.5629 12.7729 37.82 13.42 37.82H23.18V47.58C23.18 48.2271 23.4371 48.8477 23.8947 49.3053C24.3522 49.7629 24.9729 50.02 25.62 50.02H35.38C36.0271 50.02 36.6478 49.7629 37.1053 49.3053C37.5629 48.8477 37.82 48.2271 37.82 47.58V37.82H47.58C48.2271 37.82 48.8477 37.5629 49.3053 37.1053C49.7629 36.6478 50.02 36.0271 50.02 35.38V25.62C50.02 24.9729 49.7629 24.3522 49.3053 23.8947C48.8477 23.4371 48.2271 23.18 47.58 23.18H37.82V13.42C37.82 12.7729 37.5629 12.1522 37.1053 11.6947C36.6478 11.2371 36.0271 10.98 35.38 10.98H25.62Z" fill="white"/>
<path d="M21.35 32.4812H24.4547C24.6162 32.4812 24.7591 32.3769 24.8083 32.2229L27.6183 23.4383C27.7378 23.0644 28.2804 23.1076 28.339 23.4958L30.4172 37.2114C30.4747 37.5909 30.9998 37.6444 31.1327 37.2844L34.4795 28.2163C34.6019 27.8849 35.074 27.8953 35.1815 28.2317L36.4582 32.2229C36.5074 32.3769 36.6503 32.4812 36.8119 32.4812H39.9166" stroke="#5F6FFF" stroke-width="4" stroke-linecap="round"/>
</svg>
